<?xml version="1.0" encoding="UTF-8" standalone="no"?>
<svg
   xmlns:dc="http://purl.org/dc/elements/1.1/"
   xmlns:cc="http://creativecommons.org/ns#"
   xmlns:rdf="http://www.w3.org/1999/02/22-rdf-syntax-ns#"
   xmlns:svg="http://www.w3.org/2000/svg"
   xmlns="http://www.w3.org/2000/svg"
   xmlns:sodipodi="http://sodipodi.sourceforge.net/DTD/sodipodi-0.dtd"
   xmlns:inkscape="http://www.inkscape.org/namespaces/inkscape"
   version="1.0"
   width="162.06mm"
   height="88.489998mm"
   id="svg165"
   sodipodi:docname="age stand.emf">
  <metadata
     id="metadata169">
    <rdf:RDF>
      <cc:Work
         rdf:about="">
        <dc:format>image/svg+xml</dc:format>
        <dc:type
           rdf:resource="http://purl.org/dc/dcmitype/StillImage" />
      </cc:Work>
    </rdf:RDF>
  </metadata>
  <sodipodi:namedview
     pagecolor="#ffffff"
     bordercolor="#666666"
     borderopacity="1"
     objecttolerance="10"
     gridtolerance="10"
     guidetolerance="10"
     inkscape:pageopacity="0"
     inkscape:pageshadow="2"
     inkscape:window-width="640"
     inkscape:window-height="480"
     id="namedview167" />
  <defs
     id="defs9">
    <clipPath
       clipPathUnits="userSpaceOnUse"
       id="clipEmfPath1">
      <path
         d="M 89.275363,53.757208 L 571.17033,53.757208 L 571.17033,245.74724 L 89.275363,245.74724 z"
         id="path2" />
    </clipPath>
    <clipPath
       clipPathUnits="userSpaceOnUse"
       id="clipEmfPath2">
      <path
         d="M 90.235313,53.757208 L 570.21038,53.757208 L 570.21038,245.74724 L 90.235313,245.74724 z"
         id="path5" />
    </clipPath>
    <pattern
       id="EMFhbasepattern"
       patternUnits="userSpaceOnUse"
       width="6"
       height="6"
       x="0"
       y="0" />
  </defs>
  <text
     xml:space="preserve"
     style="font-size:18.562500px;font-style:normal;font-variant:normal;font-weight:700;font-stretch:Normal;line-height:125.000000%;letter-spacing:0px;word-spacing:0px;fill:#000000;fill-opacity:1;stroke:none;font-family:Arial;text-align:start;text-anchor:start;"
     transform="matrix(1.000000,-0.000000,0.000000,1.000000,134.393020,30.718405)"
     x="0.000000"
     y="0.000000"
     id="text15"><tspan
       sodipodi:role="line"
       x="0.000000"
       y="0.000000"
       id="tspan13"><tspan
         dx="0.000000"
         dy="0.000000"
         style="fill:#000000;font-size:18.562500px;font-style:normal;font-variant:normal;font-weight:700;font-stretch:Normal;font-family:Arial;"
         id="tspan11">The age-standarized rate of stomach cancer</tspan></tspan></text>
  <text
     xml:space="preserve"
     style="font-size:16.000000px;font-style:normal;font-variant:normal;font-weight:700;font-stretch:Normal;line-height:125.000000%;letter-spacing:0px;word-spacing:0px;fill:#000000;fill-opacity:1;stroke:none;font-family:Arial;text-align:start;text-anchor:start;"
     transform="matrix(1.000000,-0.000000,0.000000,1.000000,134.393020,30.718405)"
     x="179.510676"
     y="257.266638"
     id="text21"><tspan
       sodipodi:role="line"
       x="179.510676"
       y="257.266638"
       id="tspan19"><tspan
         dx="0.000000"
         dy="0.000000"
         style="fill:#000000;font-size:16.000000px;font-style:normal;font-variant:normal;font-weight:700;font-stretch:Normal;font-family:Arial;"
         id="tspan17">year</tspan></tspan></text>
  <text
     xml:space="preserve"
     style="font-size:16.000000px;font-style:normal;font-variant:normal;font-weight:700;font-stretch:Normal;line-height:125.000000%;letter-spacing:0px;word-spacing:0px;fill:#000000;fill-opacity:1;stroke:none;font-family:Arial;text-align:start;text-anchor:start;"
     transform="matrix(0.000000,-1.000000,1.000000,0.000000,27.998546,236.147735)"
     x="0.000000"
     y="0.000000"
     id="text69"><tspan
       sodipodi:role="line"
       x="0.000000"
       y="0.000000"
       id="tspan67"><tspan
         dx="0.000000"
         dy="0.000000"
         style="fill:#000000;font-size:16.000000px;font-style:normal;font-variant:normal;font-weight:700;font-stretch:Normal;font-family:Arial;"
         id="tspan23">r</tspan><tspan
         dx="0.000000"
         dy="0.000000"
         style="fill:#000000;font-size:16.000000px;font-style:normal;font-variant:normal;font-weight:700;font-stretch:Normal;font-family:Arial;"
         id="tspan25">a</tspan><tspan
         dx="0.000000"
         dy="0.000000"
         style="fill:#000000;font-size:16.000000px;font-style:normal;font-variant:normal;font-weight:700;font-stretch:Normal;font-family:Arial;"
         id="tspan27">t</tspan><tspan
         dx="0.000000"
         dy="0.000000"
         style="fill:#000000;font-size:16.000000px;font-style:normal;font-variant:normal;font-weight:700;font-stretch:Normal;font-family:Arial;"
         id="tspan29">e</tspan><tspan
         dx="0.000000"
         dy="0.000000"
         style="fill:#000000;font-size:16.000000px;font-style:normal;font-variant:normal;font-weight:700;font-stretch:Normal;font-family:Arial;"
         id="tspan31"> </tspan><tspan
         dx="0.000000"
         dy="0.000000"
         style="fill:#000000;font-size:16.000000px;font-style:normal;font-variant:normal;font-weight:700;font-stretch:Normal;font-family:Arial;"
         id="tspan33">o</tspan><tspan
         dx="0.000000"
         dy="0.000000"
         style="fill:#000000;font-size:16.000000px;font-style:normal;font-variant:normal;font-weight:700;font-stretch:Normal;font-family:Arial;"
         id="tspan35">f</tspan><tspan
         dx="0.000000"
         dy="0.000000"
         style="fill:#000000;font-size:16.000000px;font-style:normal;font-variant:normal;font-weight:700;font-stretch:Normal;font-family:Arial;"
         id="tspan37"> </tspan><tspan
         dx="0.000000"
         dy="0.000000"
         style="fill:#000000;font-size:16.000000px;font-style:normal;font-variant:normal;font-weight:700;font-stretch:Normal;font-family:Arial;"
         id="tspan39">s</tspan><tspan
         dx="0.000000"
         dy="0.000000"
         style="fill:#000000;font-size:16.000000px;font-style:normal;font-variant:normal;font-weight:700;font-stretch:Normal;font-family:Arial;"
         id="tspan41">t</tspan><tspan
         dx="0.000000"
         dy="0.000000"
         style="fill:#000000;font-size:16.000000px;font-style:normal;font-variant:normal;font-weight:700;font-stretch:Normal;font-family:Arial;"
         id="tspan43">o</tspan><tspan
         dx="0.000000"
         dy="0.000000"
         style="fill:#000000;font-size:16.000000px;font-style:normal;font-variant:normal;font-weight:700;font-stretch:Normal;font-family:Arial;"
         id="tspan45">m</tspan><tspan
         dx="0.000000"
         dy="0.000000"
         style="fill:#000000;font-size:16.000000px;font-style:normal;font-variant:normal;font-weight:700;font-stretch:Normal;font-family:Arial;"
         id="tspan47">a</tspan><tspan
         dx="0.000000"
         dy="0.000000"
         style="fill:#000000;font-size:16.000000px;font-style:normal;font-variant:normal;font-weight:700;font-stretch:Normal;font-family:Arial;"
         id="tspan49">c</tspan><tspan
         dx="0.000000"
         dy="0.000000"
         style="fill:#000000;font-size:16.000000px;font-style:normal;font-variant:normal;font-weight:700;font-stretch:Normal;font-family:Arial;"
         id="tspan51">h</tspan><tspan
         dx="0.000000"
         dy="0.000000"
         style="fill:#000000;font-size:16.000000px;font-style:normal;font-variant:normal;font-weight:700;font-stretch:Normal;font-family:Arial;"
         id="tspan53"> </tspan><tspan
         dx="0.000000"
         dy="0.000000"
         style="fill:#000000;font-size:16.000000px;font-style:normal;font-variant:normal;font-weight:700;font-stretch:Normal;font-family:Arial;"
         id="tspan55">c</tspan><tspan
         dx="0.000000"
         dy="0.000000"
         style="fill:#000000;font-size:16.000000px;font-style:normal;font-variant:normal;font-weight:700;font-stretch:Normal;font-family:Arial;"
         id="tspan57">a</tspan><tspan
         dx="0.000000"
         dy="0.000000"
         style="fill:#000000;font-size:16.000000px;font-style:normal;font-variant:normal;font-weight:700;font-stretch:Normal;font-family:Arial;"
         id="tspan59">n</tspan><tspan
         dx="0.000000"
         dy="0.000000"
         style="fill:#000000;font-size:16.000000px;font-style:normal;font-variant:normal;font-weight:700;font-stretch:Normal;font-family:Arial;"
         id="tspan61">c</tspan><tspan
         dx="0.000000"
         dy="0.000000"
         style="fill:#000000;font-size:16.000000px;font-style:normal;font-variant:normal;font-weight:700;font-stretch:Normal;font-family:Arial;"
         id="tspan63">e</tspan><tspan
         dx="0.000000"
         dy="0.000000"
         style="fill:#000000;font-size:16.000000px;font-style:normal;font-variant:normal;font-weight:700;font-stretch:Normal;font-family:Arial;"
         id="tspan65">r</tspan></tspan></text>
  <text
     xml:space="preserve"
     style="font-size:14.562500px;font-style:normal;font-variant:normal;font-weight:700;font-stretch:Normal;line-height:125.000000%;letter-spacing:0px;word-spacing:0px;fill:#000000;fill-opacity:1;stroke:none;font-family:Arial;text-align:start;text-anchor:start;"
     transform="matrix(1.000000,-0.000000,0.000000,1.000000,88.475405,319.823389)"
     x="0.000000"
     y="0.000000"
     id="text75"><tspan
       sodipodi:role="line"
       x="0.000000"
       y="0.000000"
       id="tspan73"><tspan
         dx="0.000000"
         dy="0.000000"
         style="fill:#000000;font-size:14.562500px;font-style:normal;font-variant:normal;font-weight:700;font-stretch:Normal;font-family:Arial;"
         id="tspan71">1980</tspan></tspan></text>
  <text
     xml:space="preserve"
     style="font-size:14.562500px;font-style:normal;font-variant:normal;font-weight:700;font-stretch:Normal;line-height:125.000000%;letter-spacing:0px;word-spacing:0px;fill:#000000;fill-opacity:1;stroke:none;font-family:Arial;text-align:start;text-anchor:start;"
     transform="matrix(1.000000,-0.000000,0.000000,1.000000,88.475405,319.823389)"
     x="125.273493"
     y="0.000000"
     id="text81"><tspan
       sodipodi:role="line"
       x="125.273493"
       y="0.000000"
       id="tspan79"><tspan
         dx="0.000000"
         dy="0.000000"
         style="fill:#000000;font-size:14.562500px;font-style:normal;font-variant:normal;font-weight:700;font-stretch:Normal;font-family:Arial;"
         id="tspan77">1990</tspan></tspan></text>
  <text
     xml:space="preserve"
     style="font-size:14.562500px;font-style:normal;font-variant:normal;font-weight:700;font-stretch:Normal;line-height:125.000000%;letter-spacing:0px;word-spacing:0px;fill:#000000;fill-opacity:1;stroke:none;font-family:Arial;text-align:start;text-anchor:start;"
     transform="matrix(1.000000,-0.000000,0.000000,1.000000,88.475405,319.823389)"
     x="250.546987"
     y="0.000000"
     id="text87"><tspan
       sodipodi:role="line"
       x="250.546987"
       y="0.000000"
       id="tspan85"><tspan
         dx="0.000000"
         dy="0.000000"
         style="fill:#000000;font-size:14.562500px;font-style:normal;font-variant:normal;font-weight:700;font-stretch:Normal;font-family:Arial;"
         id="tspan83">2000</tspan></tspan></text>
  <text
     xml:space="preserve"
     style="font-size:14.562500px;font-style:normal;font-variant:normal;font-weight:700;font-stretch:Normal;line-height:125.000000%;letter-spacing:0px;word-spacing:0px;fill:#000000;fill-opacity:1;stroke:none;font-family:Arial;text-align:start;text-anchor:start;"
     transform="matrix(1.000000,-0.000000,0.000000,1.000000,88.475405,319.823389)"
     x="375.820480"
     y="0.000000"
     id="text93"><tspan
       sodipodi:role="line"
       x="375.820480"
       y="0.000000"
       id="tspan91"><tspan
         dx="0.000000"
         dy="0.000000"
         style="fill:#000000;font-size:14.562500px;font-style:normal;font-variant:normal;font-weight:700;font-stretch:Normal;font-family:Arial;"
         id="tspan89">2010</tspan></tspan></text>
  <path
     style="fill:none;stroke:#000000;stroke-width:1.9199003px;stroke-linecap:butt;stroke-linejoin:miter;stroke-miterlimit:2;stroke-dasharray:none;stroke-opacity:1;"
     d="  M 91.195263,245.74724   L 569.25043,245.74724     M 104.63457,245.74724   L 104.63457,251.18695     M 229.90806,245.74724   L 229.90806,251.18695     M 355.18155,245.74724   L 355.18155,251.18695     M 480.45505,245.74724   L 480.45505,251.18695    "
     id="path95" />
  <text
     xml:space="preserve"
     style="font-size:14.562500px;font-style:normal;font-variant:normal;font-weight:700;font-stretch:Normal;line-height:125.000000%;letter-spacing:0px;word-spacing:0px;fill:#000000;fill-opacity:1;stroke:none;font-family:Arial;text-align:start;text-anchor:start;"
     transform="matrix(1.000000,-0.000000,0.000000,1.000000,76.796011,250.227003)"
     x="0.000000"
     y="0.000000"
     id="text101"><tspan
       sodipodi:role="line"
       x="0.000000"
       y="0.000000"
       id="tspan99"><tspan
         dx="0.000000"
         dy="0.000000"
         style="fill:#000000;font-size:14.562500px;font-style:normal;font-variant:normal;font-weight:700;font-stretch:Normal;font-family:Arial;"
         id="tspan97">0</tspan></tspan></text>
  <text
     xml:space="preserve"
     style="font-size:14.562500px;font-style:normal;font-variant:normal;font-weight:700;font-stretch:Normal;line-height:125.000000%;letter-spacing:0px;word-spacing:0px;fill:#000000;fill-opacity:1;stroke:none;font-family:Arial;text-align:start;text-anchor:start;"
     transform="matrix(1.000000,-0.000000,0.000000,1.000000,76.796011,250.227003)"
     x="0.000000"
     y="-38.398006"
     id="text107"><tspan
       sodipodi:role="line"
       x="0.000000"
       y="-38.398006"
       id="tspan105"><tspan
         dx="0.000000"
         dy="0.000000"
         style="fill:#000000;font-size:14.562500px;font-style:normal;font-variant:normal;font-weight:700;font-stretch:Normal;font-family:Arial;"
         id="tspan103">5</tspan></tspan></text>
  <text
     xml:space="preserve"
     style="font-size:14.562500px;font-style:normal;font-variant:normal;font-weight:700;font-stretch:Normal;line-height:125.000000%;letter-spacing:0px;word-spacing:0px;fill:#000000;fill-opacity:1;stroke:none;font-family:Arial;text-align:start;text-anchor:start;"
     transform="matrix(1.000000,-0.000000,0.000000,1.000000,76.796011,250.227003)"
     x="-8.159576"
     y="-76.796011"
     id="text113"><tspan
       sodipodi:role="line"
       x="-8.159576"
       y="-76.796011"
       id="tspan111"><tspan
         dx="0.000000"
         dy="0.000000"
         style="fill:#000000;font-size:14.562500px;font-style:normal;font-variant:normal;font-weight:700;font-stretch:Normal;font-family:Arial;"
         id="tspan109">10</tspan></tspan></text>
  <text
     xml:space="preserve"
     style="font-size:14.562500px;font-style:normal;font-variant:normal;font-weight:700;font-stretch:Normal;line-height:125.000000%;letter-spacing:0px;word-spacing:0px;fill:#000000;fill-opacity:1;stroke:none;font-family:Arial;text-align:start;text-anchor:start;"
     transform="matrix(1.000000,-0.000000,0.000000,1.000000,76.796011,250.227003)"
     x="-8.159576"
     y="-115.194017"
     id="text119"><tspan
       sodipodi:role="line"
       x="-8.159576"
       y="-115.194017"
       id="tspan117"><tspan
         dx="0.000000"
         dy="0.000000"
         style="fill:#000000;font-size:14.562500px;font-style:normal;font-variant:normal;font-weight:700;font-stretch:Normal;font-family:Arial;"
         id="tspan115">15</tspan></tspan></text>
  <text
     xml:space="preserve"
     style="font-size:14.562500px;font-style:normal;font-variant:normal;font-weight:700;font-stretch:Normal;line-height:125.000000%;letter-spacing:0px;word-spacing:0px;fill:#000000;fill-opacity:1;stroke:none;font-family:Arial;text-align:start;text-anchor:start;"
     transform="matrix(1.000000,-0.000000,0.000000,1.000000,76.796011,250.227003)"
     x="-8.159576"
     y="-153.592023"
     id="text125"><tspan
       sodipodi:role="line"
       x="-8.159576"
       y="-153.592023"
       id="tspan123"><tspan
         dx="0.000000"
         dy="0.000000"
         style="fill:#000000;font-size:14.562500px;font-style:normal;font-variant:normal;font-weight:700;font-stretch:Normal;font-family:Arial;"
         id="tspan121">20</tspan></tspan></text>
  <text
     xml:space="preserve"
     style="font-size:14.562500px;font-style:normal;font-variant:normal;font-weight:700;font-stretch:Normal;line-height:125.000000%;letter-spacing:0px;word-spacing:0px;fill:#000000;fill-opacity:1;stroke:none;font-family:Arial;text-align:start;text-anchor:start;"
     transform="matrix(1.000000,-0.000000,0.000000,1.000000,76.796011,250.227003)"
     x="-8.159576"
     y="-191.990028"
     id="text131"><tspan
       sodipodi:role="line"
       x="-8.159576"
       y="-191.990028"
       id="tspan129"><tspan
         dx="0.000000"
         dy="0.000000"
         style="fill:#000000;font-size:14.562500px;font-style:normal;font-variant:normal;font-weight:700;font-stretch:Normal;font-family:Arial;"
         id="tspan127">25</tspan></tspan></text>
  <path
     style="fill:none;stroke:#000000;stroke-width:1.9199003px;stroke-linecap:butt;stroke-linejoin:miter;stroke-miterlimit:2;stroke-dasharray:none;stroke-opacity:1;"
     d="  M 92.155214,246.70719   L 92.155214,52.797258     M 92.155214,245.74724   L 86.715496,245.74724     M 92.155214,207.34923   L 86.715496,207.34923     M 92.155214,168.95122   L 86.715496,168.95122     M 92.155214,130.55322   L 86.715496,130.55322     M 92.155214,92.155214   L 86.715496,92.155214     M 92.155214,53.757208   L 86.715496,53.757208    "
     id="path133" />
  <path
     style="fill:none;stroke:#ff0000;stroke-width:2.8798504px;stroke-linecap:butt;stroke-linejoin:miter;stroke-miterlimit:2;stroke-dasharray:none;stroke-opacity:1;"
     clip-path="url(#clipEmfPath1)"
     d="  M 92.155214,195.18986   L 92.155214,195.18986   L 92.155214,195.18986   L 104.63457,183.99044   L 104.63457,183.99044   L 117.11392,183.03049   L 117.11392,183.03049   L 129.59327,186.7103   L 129.59327,186.7103   L 142.23261,179.0307   L 142.23261,179.0307   L 154.71196,178.55073   L 154.71196,178.55073   L 167.19132,178.39073   L 167.19132,178.39073   L 179.83066,181.43058   L 179.83066,181.43058   L 192.31001,171.51109   L 192.31001,171.51109   L 204.78936,183.51047   L 204.78936,183.51047   L 217.42871,172.95102   L 217.42871,172.95102   L 229.90806,183.83045   L 229.90806,183.83045   L 242.38741,165.11142   L 242.38741,165.11142   L 255.02675,167.99127   L 255.02675,167.99127   L 267.50611,173.91097   L 267.50611,173.91097   L 279.98546,175.99086   L 279.98546,175.99086   L 292.6248,172.47104   L 292.6248,172.47104   L 305.10415,164.95143   L 305.10415,164.95143   L 317.5835,159.03174   L 317.5835,159.03174   L 330.22285,165.75139   L 330.22285,165.75139   L 342.7022,165.43141   L 342.7022,165.43141   L 355.18155,167.67129   L 355.18155,167.67129   L 367.6609,170.39115   L 367.6609,170.39115   L 380.30025,168.31126   L 380.30025,168.31126   L 392.7796,175.1909   L 392.7796,175.1909   L 405.25895,169.11122   L 405.25895,169.11122   L 417.89829,174.55093   L 417.89829,174.55093   L 430.37765,175.51088   L 430.37765,175.51088   L 442.857,175.99086   L 442.857,175.99086   L 455.49634,179.35068   L 455.49634,179.35068   L 467.97569,174.39094   L 467.97569,174.39094   L 480.45505,176.63083   L 480.45505,176.63083   L 493.09439,181.11059   L 493.09439,181.11059   L 505.57374,183.51047   L 505.57374,183.51047   L 518.05309,186.7103   L 518.05309,186.7103   L 530.69244,185.11039   L 530.69244,185.11039   L 543.17179,186.07034   L 543.17179,186.07034   L 555.65114,194.22991   L 555.65114,194.22991   L 568.29048,193.90993  "
     id="path135" />
  <path
     style="fill:none;stroke:#0000ff;stroke-width:1.9199003px;stroke-linecap:butt;stroke-linejoin:miter;stroke-miterlimit:2;stroke-dasharray:none;stroke-opacity:1;"
     clip-path="url(#clipEmfPath2)"
     d="  M 92.155214,118.55384   L 92.155214,118.55384   L 92.155214,118.55384   L 104.63457,100.79476   L 104.63457,100.79476   L 117.11392,86.555504   L 117.11392,86.555504   L 129.59327,108.63436   L 129.59327,108.63436   L 142.23261,89.115371   L 142.23261,89.115371   L 154.71196,100.95476   L 154.71196,100.95476   L 167.19132,88.315413   L 167.19132,88.315413   L 179.83066,104.31458   L 179.83066,104.31458   L 192.31001,80.795804   L 192.31001,80.795804   L 204.78936,102.71467   L 204.78936,102.71467   L 217.42871,84.475612   L 217.42871,84.475612   L 229.90806,111.19422   L 229.90806,111.19422   L 242.38741,93.275155   L 242.38741,93.275155   L 255.02675,89.435355   L 255.02675,89.435355   L 267.50611,98.394889   L 267.50611,98.394889   L 279.98546,110.23427   L 279.98546,110.23427   L 292.6248,99.514831   L 292.6248,99.514831   L 305.10415,95.835022   L 305.10415,95.835022   L 317.5835,98.874864   L 317.5835,98.874864   L 330.22285,91.675238   L 330.22285,91.675238   L 342.7022,92.955172   L 342.7022,92.955172   L 355.18155,100.31479   L 355.18155,100.31479   L 367.6609,95.995014   L 367.6609,95.995014   L 380.30025,92.475197   L 380.30025,92.475197   L 392.7796,112.95413   L 392.7796,112.95413   L 405.25895,106.87445   L 405.25895,106.87445   L 417.89829,118.55384   L 417.89829,118.55384   L 430.37765,113.27412   L 430.37765,113.27412   L 442.857,118.39385   L 442.857,118.39385   L 455.49634,123.67358   L 455.49634,123.67358   L 467.97569,122.71363   L 467.97569,122.71363   L 480.45505,124.63353   L 480.45505,124.63353   L 493.09439,127.83336   L 493.09439,127.83336   L 505.57374,133.27308   L 505.57374,133.27308   L 518.05309,134.23303   L 518.05309,134.23303   L 530.69244,142.23261   L 530.69244,142.23261   L 543.17179,143.03257   L 543.17179,143.03257   L 555.65114,147.67233   L 555.65114,147.67233   L 568.29048,150.55218  "
     id="path137" />
  <path
     style="fill:none;stroke:#000000;stroke-width:1.9199003px;stroke-linecap:butt;stroke-linejoin:miter;stroke-miterlimit:2;stroke-dasharray:none;stroke-opacity:1;"
     clip-path="url(#clipEmfPath2)"
     d="  M 92.155214,152.95206   L 92.155214,152.95206   L 92.155214,152.95206   L 104.63457,138.5528   L 104.63457,138.5528   L 117.11392,131.83315   L 117.11392,131.83315   L 129.59327,144.63249   L 129.59327,144.63249   L 142.23261,131.19319   L 142.23261,131.19319   L 154.71196,136.95289   L 154.71196,136.95289   L 167.19132,131.19319   L 167.19132,131.19319   L 179.83066,140.15272   L 179.83066,140.15272   L 192.31001,123.1936   L 192.31001,123.1936   L 204.78936,140.6327   L 204.78936,140.6327   L 217.42871,126.55343   L 217.42871,126.55343   L 229.90806,145.27245   L 229.90806,145.27245   L 242.38741,127.35339   L 242.38741,127.35339   L 255.02675,126.71342   L 255.02675,126.71342   L 267.50611,134.07304   L 267.50611,134.07304   L 279.98546,141.43265   L 279.98546,141.43265   L 292.6248,134.39302   L 292.6248,134.39302   L 305.10415,128.63332   L 305.10415,128.63332   L 317.5835,127.51338   L 317.5835,127.51338   L 330.22285,127.35339   L 330.22285,127.35339   L 342.7022,128.15334   L 342.7022,128.15334   L 355.18155,133.43307   L 355.18155,133.43307   L 367.6609,132.31313   L 367.6609,132.31313   L 380.30025,129.75326   L 380.30025,129.75326   L 392.7796,143.67254   L 392.7796,143.67254   L 405.25895,137.75285   L 405.25895,137.75285   L 417.89829,146.55239   L 417.89829,146.55239   L 430.37765,144.63249   L 430.37765,144.63249   L 442.857,147.51234   L 442.857,147.51234   L 455.49634,151.83211   L 455.49634,151.83211   L 467.97569,149.27225   L 467.97569,149.27225   L 480.45505,151.51213   L 480.45505,151.51213   L 493.09439,155.51192   L 493.09439,155.51192   L 505.57374,159.51172   L 505.57374,159.51172   L 518.05309,161.91159   L 518.05309,161.91159   L 530.69244,164.95143   L 530.69244,164.95143   L 543.17179,165.91138   L 543.17179,165.91138   L 555.65114,172.47104   L 555.65114,172.47104   L 568.29048,173.75098  "
     id="path139" />
  <text
     xml:space="preserve"
     style="font-size:16.000000px;font-style:normal;font-variant:normal;font-weight:400;font-stretch:Normal;line-height:125.000000%;letter-spacing:0px;word-spacing:0px;fill:#000000;fill-opacity:1;stroke:none;font-family:Arial;text-align:start;text-anchor:start;"
     transform="matrix(1.000000,-0.000000,0.000000,1.000000,407.018860,62.396759)"
     x="0.000000"
     y="0.000000"
     id="text145"><tspan
       sodipodi:role="line"
       x="0.000000"
       y="0.000000"
       id="tspan143"><tspan
         dx="0.000000"
         dy="0.000000"
         style="fill:#000000;font-size:16.000000px;font-style:normal;font-variant:normal;font-weight:400;font-stretch:Normal;font-family:Arial;"
         id="tspan141">All</tspan></tspan></text>
  <path
     style="fill:none;stroke:#000000;stroke-width:1.9199003px;stroke-linecap:butt;stroke-linejoin:miter;stroke-miterlimit:2;stroke-dasharray:none;stroke-opacity:1;"
     d="  M 375.02052,57.117033   L 395.49946,57.117033  "
     id="path147" />
  <text
     xml:space="preserve"
     style="font-size:16.000000px;font-style:normal;font-variant:normal;font-weight:400;font-stretch:Normal;line-height:125.000000%;letter-spacing:0px;word-spacing:0px;fill:#000000;fill-opacity:1;stroke:none;font-family:Arial;text-align:start;text-anchor:start;"
     transform="matrix(1.000000,-0.000000,0.000000,1.000000,473.255419,62.396759)"
     x="0.000000"
     y="0.000000"
     id="text153"><tspan
       sodipodi:role="line"
       x="0.000000"
       y="0.000000"
       id="tspan151"><tspan
         dx="0.000000"
         dy="0.000000"
         style="fill:#000000;font-size:16.000000px;font-style:normal;font-variant:normal;font-weight:400;font-stretch:Normal;font-family:Arial;"
         id="tspan149">Male</tspan></tspan></text>
  <path
     style="fill:none;stroke:#0000ff;stroke-width:1.9199003px;stroke-linecap:butt;stroke-linejoin:miter;stroke-miterlimit:2;stroke-dasharray:none;stroke-opacity:1;"
     d="  M 441.25708,57.117033   L 461.73602,57.117033  "
     id="path155" />
  <text
     xml:space="preserve"
     style="font-size:16.000000px;font-style:normal;font-variant:normal;font-weight:400;font-stretch:Normal;line-height:125.000000%;letter-spacing:0px;word-spacing:0px;fill:#000000;fill-opacity:1;stroke:none;font-family:Arial;text-align:start;text-anchor:start;"
     transform="matrix(1.000000,-0.000000,0.000000,1.000000,547.171580,65.276610)"
     x="0.000000"
     y="0.000000"
     id="text161"><tspan
       sodipodi:role="line"
       x="0.000000"
       y="0.000000"
       id="tspan159"><tspan
         dx="0.000000"
         dy="0.000000"
         style="fill:#000000;font-size:16.000000px;font-style:normal;font-variant:normal;font-weight:400;font-stretch:Normal;font-family:Arial;"
         id="tspan157">Female</tspan></tspan></text>
  <path
     style="fill:none;stroke:#ff0000;stroke-width:2.8798504px;stroke-linecap:butt;stroke-linejoin:miter;stroke-miterlimit:2;stroke-dasharray:none;stroke-opacity:1;"
     d="  M 515.17324,59.996884   L 535.65218,59.996884  "
     id="path163" />
</svg>
