<?xml version="1.0" encoding="UTF-8" standalone="no"?>
<svg
   xmlns:dc="http://purl.org/dc/elements/1.1/"
   xmlns:cc="http://creativecommons.org/ns#"
   xmlns:rdf="http://www.w3.org/1999/02/22-rdf-syntax-ns#"
   xmlns:svg="http://www.w3.org/2000/svg"
   xmlns="http://www.w3.org/2000/svg"
   xmlns:sodipodi="http://sodipodi.sourceforge.net/DTD/sodipodi-0.dtd"
   xmlns:inkscape="http://www.inkscape.org/namespaces/inkscape"
   version="1.0"
   width="162.06mm"
   height="88.489998mm"
   id="svg127"
   sodipodi:docname="age.emf">
  <metadata
     id="metadata131">
    <rdf:RDF>
      <cc:Work
         rdf:about="">
        <dc:format>image/svg+xml</dc:format>
        <dc:type
           rdf:resource="http://purl.org/dc/dcmitype/StillImage" />
      </cc:Work>
    </rdf:RDF>
  </metadata>
  <sodipodi:namedview
     pagecolor="#ffffff"
     bordercolor="#666666"
     borderopacity="1"
     objecttolerance="10"
     gridtolerance="10"
     guidetolerance="10"
     inkscape:pageopacity="0"
     inkscape:pageshadow="2"
     inkscape:window-width="640"
     inkscape:window-height="480"
     id="namedview129" />
  <defs
     id="defs9">
    <clipPath
       clipPathUnits="userSpaceOnUse"
       id="clipEmfPath1">
      <path
         d="M 90.235313,53.757208 L 570.21038,53.757208 L 570.21038,245.74724 L 90.235313,245.74724 z"
         id="path2" />
    </clipPath>
    <clipPath
       clipPathUnits="userSpaceOnUse"
       id="clipEmfPath2">
      <path
         d="M 89.275363,53.757208 L 571.17033,53.757208 L 571.17033,245.74724 L 89.275363,245.74724 z"
         id="path5" />
    </clipPath>
    <pattern
       id="EMFhbasepattern"
       patternUnits="userSpaceOnUse"
       width="6"
       height="6"
       x="0"
       y="0" />
  </defs>
  <text
     xml:space="preserve"
     style="font-size:18.562500px;font-style:normal;font-variant:normal;font-weight:700;font-stretch:Normal;line-height:125.000000%;letter-spacing:0px;word-spacing:0px;fill:#000000;fill-opacity:1;stroke:none;font-family:Arial;text-align:start;text-anchor:start;"
     transform="matrix(1.000000,-0.000000,0.000000,1.000000,134.393020,30.718405)"
     x="0.000000"
     y="0.000000"
     id="text15"><tspan
       sodipodi:role="line"
       x="0.000000"
       y="0.000000"
       id="tspan13"><tspan
         dx="0.000000"
         dy="0.000000"
         style="fill:#000000;font-size:18.562500px;font-style:normal;font-variant:normal;font-weight:700;font-stretch:Normal;font-family:Arial;"
         id="tspan11">The mean ages of stomach cancer inTaiwan</tspan></tspan></text>
  <text
     xml:space="preserve"
     style="font-size:16.000000px;font-style:normal;font-variant:normal;font-weight:700;font-stretch:Normal;line-height:125.000000%;letter-spacing:0px;word-spacing:0px;fill:#000000;fill-opacity:1;stroke:none;font-family:Arial;text-align:start;text-anchor:start;"
     transform="matrix(1.000000,-0.000000,0.000000,1.000000,134.393020,30.718405)"
     x="179.510676"
     y="257.266638"
     id="text21"><tspan
       sodipodi:role="line"
       x="179.510676"
       y="257.266638"
       id="tspan19"><tspan
         dx="0.000000"
         dy="0.000000"
         style="fill:#000000;font-size:16.000000px;font-style:normal;font-variant:normal;font-weight:700;font-stretch:Normal;font-family:Arial;"
         id="tspan17">year</tspan></tspan></text>
  <text
     xml:space="preserve"
     style="font-size:16.000000px;font-style:normal;font-variant:normal;font-weight:700;font-stretch:Normal;line-height:125.000000%;letter-spacing:0px;word-spacing:0px;fill:#000000;fill-opacity:1;stroke:none;font-family:Arial;text-align:start;text-anchor:start;"
     transform="matrix(0.000000,-1.000000,1.000000,0.000000,27.998546,163.191524)"
     x="0.000000"
     y="0.000000"
     id="text31"><tspan
       sodipodi:role="line"
       x="0.000000"
       y="0.000000"
       id="tspan29"><tspan
         dx="0.000000"
         dy="0.000000"
         style="fill:#000000;font-size:16.000000px;font-style:normal;font-variant:normal;font-weight:700;font-stretch:Normal;font-family:Arial;"
         id="tspan23">a</tspan><tspan
         dx="0.000000"
         dy="0.000000"
         style="fill:#000000;font-size:16.000000px;font-style:normal;font-variant:normal;font-weight:700;font-stretch:Normal;font-family:Arial;"
         id="tspan25">g</tspan><tspan
         dx="0.000000"
         dy="0.000000"
         style="fill:#000000;font-size:16.000000px;font-style:normal;font-variant:normal;font-weight:700;font-stretch:Normal;font-family:Arial;"
         id="tspan27">e</tspan></tspan></text>
  <text
     xml:space="preserve"
     style="font-size:14.562500px;font-style:normal;font-variant:normal;font-weight:700;font-stretch:Normal;line-height:125.000000%;letter-spacing:0px;word-spacing:0px;fill:#000000;fill-opacity:1;stroke:none;font-family:Arial;text-align:start;text-anchor:start;"
     transform="matrix(1.000000,-0.000000,0.000000,1.000000,88.475405,319.823389)"
     x="0.000000"
     y="0.000000"
     id="text37"><tspan
       sodipodi:role="line"
       x="0.000000"
       y="0.000000"
       id="tspan35"><tspan
         dx="0.000000"
         dy="0.000000"
         style="fill:#000000;font-size:14.562500px;font-style:normal;font-variant:normal;font-weight:700;font-stretch:Normal;font-family:Arial;"
         id="tspan33">1980</tspan></tspan></text>
  <text
     xml:space="preserve"
     style="font-size:14.562500px;font-style:normal;font-variant:normal;font-weight:700;font-stretch:Normal;line-height:125.000000%;letter-spacing:0px;word-spacing:0px;fill:#000000;fill-opacity:1;stroke:none;font-family:Arial;text-align:start;text-anchor:start;"
     transform="matrix(1.000000,-0.000000,0.000000,1.000000,88.475405,319.823389)"
     x="125.273493"
     y="0.000000"
     id="text43"><tspan
       sodipodi:role="line"
       x="125.273493"
       y="0.000000"
       id="tspan41"><tspan
         dx="0.000000"
         dy="0.000000"
         style="fill:#000000;font-size:14.562500px;font-style:normal;font-variant:normal;font-weight:700;font-stretch:Normal;font-family:Arial;"
         id="tspan39">1990</tspan></tspan></text>
  <text
     xml:space="preserve"
     style="font-size:14.562500px;font-style:normal;font-variant:normal;font-weight:700;font-stretch:Normal;line-height:125.000000%;letter-spacing:0px;word-spacing:0px;fill:#000000;fill-opacity:1;stroke:none;font-family:Arial;text-align:start;text-anchor:start;"
     transform="matrix(1.000000,-0.000000,0.000000,1.000000,88.475405,319.823389)"
     x="250.546987"
     y="0.000000"
     id="text49"><tspan
       sodipodi:role="line"
       x="250.546987"
       y="0.000000"
       id="tspan47"><tspan
         dx="0.000000"
         dy="0.000000"
         style="fill:#000000;font-size:14.562500px;font-style:normal;font-variant:normal;font-weight:700;font-stretch:Normal;font-family:Arial;"
         id="tspan45">2000</tspan></tspan></text>
  <text
     xml:space="preserve"
     style="font-size:14.562500px;font-style:normal;font-variant:normal;font-weight:700;font-stretch:Normal;line-height:125.000000%;letter-spacing:0px;word-spacing:0px;fill:#000000;fill-opacity:1;stroke:none;font-family:Arial;text-align:start;text-anchor:start;"
     transform="matrix(1.000000,-0.000000,0.000000,1.000000,88.475405,319.823389)"
     x="375.820480"
     y="0.000000"
     id="text55"><tspan
       sodipodi:role="line"
       x="375.820480"
       y="0.000000"
       id="tspan53"><tspan
         dx="0.000000"
         dy="0.000000"
         style="fill:#000000;font-size:14.562500px;font-style:normal;font-variant:normal;font-weight:700;font-stretch:Normal;font-family:Arial;"
         id="tspan51">2010</tspan></tspan></text>
  <path
     style="fill:none;stroke:#000000;stroke-width:1.9199003px;stroke-linecap:butt;stroke-linejoin:miter;stroke-miterlimit:2;stroke-dasharray:none;stroke-opacity:1;"
     d="  M 91.195263,245.74724   L 569.25043,245.74724     M 104.63457,245.74724   L 104.63457,251.18695     M 229.90806,245.74724   L 229.90806,251.18695     M 355.18155,245.74724   L 355.18155,251.18695     M 480.45505,245.74724   L 480.45505,251.18695    "
     id="path57" />
  <text
     xml:space="preserve"
     style="font-size:14.562500px;font-style:normal;font-variant:normal;font-weight:700;font-stretch:Normal;line-height:125.000000%;letter-spacing:0px;word-spacing:0px;fill:#000000;fill-opacity:1;stroke:none;font-family:Arial;text-align:start;text-anchor:start;"
     transform="matrix(1.000000,-0.000000,0.000000,1.000000,68.636435,250.227003)"
     x="0.000000"
     y="0.000000"
     id="text63"><tspan
       sodipodi:role="line"
       x="0.000000"
       y="0.000000"
       id="tspan61"><tspan
         dx="0.000000"
         dy="0.000000"
         style="fill:#000000;font-size:14.562500px;font-style:normal;font-variant:normal;font-weight:700;font-stretch:Normal;font-family:Arial;"
         id="tspan59">50</tspan></tspan></text>
  <text
     xml:space="preserve"
     style="font-size:14.562500px;font-style:normal;font-variant:normal;font-weight:700;font-stretch:Normal;line-height:125.000000%;letter-spacing:0px;word-spacing:0px;fill:#000000;fill-opacity:1;stroke:none;font-family:Arial;text-align:start;text-anchor:start;"
     transform="matrix(1.000000,-0.000000,0.000000,1.000000,68.636435,250.227003)"
     x="0.000000"
     y="-38.398006"
     id="text69"><tspan
       sodipodi:role="line"
       x="0.000000"
       y="-38.398006"
       id="tspan67"><tspan
         dx="0.000000"
         dy="0.000000"
         style="fill:#000000;font-size:14.562500px;font-style:normal;font-variant:normal;font-weight:700;font-stretch:Normal;font-family:Arial;"
         id="tspan65">55</tspan></tspan></text>
  <text
     xml:space="preserve"
     style="font-size:14.562500px;font-style:normal;font-variant:normal;font-weight:700;font-stretch:Normal;line-height:125.000000%;letter-spacing:0px;word-spacing:0px;fill:#000000;fill-opacity:1;stroke:none;font-family:Arial;text-align:start;text-anchor:start;"
     transform="matrix(1.000000,-0.000000,0.000000,1.000000,68.636435,250.227003)"
     x="0.000000"
     y="-76.796011"
     id="text75"><tspan
       sodipodi:role="line"
       x="0.000000"
       y="-76.796011"
       id="tspan73"><tspan
         dx="0.000000"
         dy="0.000000"
         style="fill:#000000;font-size:14.562500px;font-style:normal;font-variant:normal;font-weight:700;font-stretch:Normal;font-family:Arial;"
         id="tspan71">60</tspan></tspan></text>
  <text
     xml:space="preserve"
     style="font-size:14.562500px;font-style:normal;font-variant:normal;font-weight:700;font-stretch:Normal;line-height:125.000000%;letter-spacing:0px;word-spacing:0px;fill:#000000;fill-opacity:1;stroke:none;font-family:Arial;text-align:start;text-anchor:start;"
     transform="matrix(1.000000,-0.000000,0.000000,1.000000,68.636435,250.227003)"
     x="0.000000"
     y="-115.194017"
     id="text81"><tspan
       sodipodi:role="line"
       x="0.000000"
       y="-115.194017"
       id="tspan79"><tspan
         dx="0.000000"
         dy="0.000000"
         style="fill:#000000;font-size:14.562500px;font-style:normal;font-variant:normal;font-weight:700;font-stretch:Normal;font-family:Arial;"
         id="tspan77">65</tspan></tspan></text>
  <text
     xml:space="preserve"
     style="font-size:14.562500px;font-style:normal;font-variant:normal;font-weight:700;font-stretch:Normal;line-height:125.000000%;letter-spacing:0px;word-spacing:0px;fill:#000000;fill-opacity:1;stroke:none;font-family:Arial;text-align:start;text-anchor:start;"
     transform="matrix(1.000000,-0.000000,0.000000,1.000000,68.636435,250.227003)"
     x="0.000000"
     y="-153.592023"
     id="text87"><tspan
       sodipodi:role="line"
       x="0.000000"
       y="-153.592023"
       id="tspan85"><tspan
         dx="0.000000"
         dy="0.000000"
         style="fill:#000000;font-size:14.562500px;font-style:normal;font-variant:normal;font-weight:700;font-stretch:Normal;font-family:Arial;"
         id="tspan83">70</tspan></tspan></text>
  <text
     xml:space="preserve"
     style="font-size:14.562500px;font-style:normal;font-variant:normal;font-weight:700;font-stretch:Normal;line-height:125.000000%;letter-spacing:0px;word-spacing:0px;fill:#000000;fill-opacity:1;stroke:none;font-family:Arial;text-align:start;text-anchor:start;"
     transform="matrix(1.000000,-0.000000,0.000000,1.000000,68.636435,250.227003)"
     x="0.000000"
     y="-191.990028"
     id="text93"><tspan
       sodipodi:role="line"
       x="0.000000"
       y="-191.990028"
       id="tspan91"><tspan
         dx="0.000000"
         dy="0.000000"
         style="fill:#000000;font-size:14.562500px;font-style:normal;font-variant:normal;font-weight:700;font-stretch:Normal;font-family:Arial;"
         id="tspan89">75</tspan></tspan></text>
  <path
     style="fill:none;stroke:#000000;stroke-width:1.9199003px;stroke-linecap:butt;stroke-linejoin:miter;stroke-miterlimit:2;stroke-dasharray:none;stroke-opacity:1;"
     d="  M 92.155214,246.70719   L 92.155214,52.797258     M 92.155214,245.74724   L 86.715496,245.74724     M 92.155214,207.34923   L 86.715496,207.34923     M 92.155214,168.95122   L 86.715496,168.95122     M 92.155214,130.55322   L 86.715496,130.55322     M 92.155214,92.155214   L 86.715496,92.155214     M 92.155214,53.757208   L 86.715496,53.757208    "
     id="path95" />
  <path
     style="fill:none;stroke:#0000ff;stroke-width:1.9199003px;stroke-linecap:butt;stroke-linejoin:miter;stroke-miterlimit:2;stroke-dasharray:none;stroke-opacity:1;"
     clip-path="url(#clipEmfPath1)"
     d="  M 92.155214,186.7103   L 92.155214,186.7103   L 92.155214,186.7103   L 104.63457,175.67088   L 104.63457,175.67088   L 117.11392,171.03112   L 117.11392,171.03112   L 129.59327,161.7516   L 129.59327,161.7516   L 142.23261,164.95143   L 142.23261,164.95143   L 154.71196,154.39198   L 154.71196,154.39198   L 167.19132,151.03216   L 167.19132,151.03216   L 179.83066,151.67212   L 179.83066,151.67212   L 192.31001,148.47229   L 192.31001,148.47229   L 204.78936,146.07241   L 204.78936,146.07241   L 217.42871,139.83274   L 217.42871,139.83274   L 229.90806,138.39281   L 229.90806,138.39281   L 242.38741,134.07304   L 242.38741,134.07304   L 255.02675,137.59285   L 255.02675,137.59285   L 267.50611,128.9533   L 267.50611,128.9533   L 279.98546,131.03319   L 279.98546,131.03319   L 292.6248,124.47353   L 292.6248,124.47353   L 305.10415,120.63373   L 305.10415,120.63373   L 317.5835,120.47374   L 317.5835,120.47374   L 330.22285,117.59389   L 330.22285,117.59389   L 342.7022,114.55405   L 342.7022,114.55405   L 355.18155,114.07408   L 355.18155,114.07408   L 367.6609,108.79435   L 367.6609,108.79435   L 380.30025,107.99439   L 380.30025,107.99439   L 392.7796,108.31437   L 392.7796,108.31437   L 405.25895,108.95434   L 405.25895,108.95434   L 417.89829,101.43473   L 417.89829,101.43473   L 430.37765,102.0747   L 430.37765,102.0747   L 442.857,103.19464   L 442.857,103.19464   L 455.49634,101.59472   L 455.49634,101.59472   L 467.97569,99.994806   L 467.97569,99.994806   L 480.45505,100.31479   L 480.45505,100.31479   L 493.09439,101.11475   L 493.09439,101.11475   L 505.57374,99.35484   L 505.57374,99.35484   L 518.05309,94.715081   L 518.05309,94.715081   L 530.69244,95.195056   L 530.69244,95.195056   L 543.17179,99.034856   L 543.17179,99.034856   L 555.65114,99.514831   L 555.65114,99.514831   L 568.29048,101.75471  "
     id="path97" />
  <path
     style="fill:none;stroke:#ff0000;stroke-width:2.8798504px;stroke-linecap:butt;stroke-linejoin:miter;stroke-miterlimit:2;stroke-dasharray:none;stroke-opacity:1;"
     clip-path="url(#clipEmfPath2)"
     d="  M 92.155214,196.14981   L 92.155214,196.14981   L 92.155214,196.14981   L 104.63457,207.50922   L 104.63457,207.50922   L 117.11392,191.99003   L 117.11392,191.99003   L 129.59327,193.42995   L 129.59327,193.42995   L 142.23261,193.26996   L 142.23261,193.26996   L 154.71196,188.6302   L 154.71196,188.6302   L 167.19132,180.9506   L 167.19132,180.9506   L 179.83066,180.31063   L 179.83066,180.31063   L 192.31001,182.8705   L 192.31001,182.8705   L 204.78936,185.75035   L 204.78936,185.75035   L 217.42871,177.91076   L 217.42871,177.91076   L 229.90806,174.87092   L 229.90806,174.87092   L 242.38741,168.95122   L 242.38741,168.95122   L 255.02675,171.3511   L 255.02675,171.3511   L 267.50611,167.19132   L 267.50611,167.19132   L 279.98546,160.31167   L 279.98546,160.31167   L 292.6248,158.23178   L 292.6248,158.23178   L 305.10415,155.9919   L 305.10415,155.9919   L 317.5835,146.55239   L 317.5835,146.55239   L 330.22285,144.3125   L 330.22285,144.3125   L 342.7022,145.91242   L 342.7022,145.91242   L 355.18155,136.15293   L 355.18155,136.15293   L 367.6609,139.67275   L 367.6609,139.67275   L 380.30025,135.99294   L 380.30025,135.99294   L 392.7796,130.71321   L 392.7796,130.71321   L 405.25895,135.19298   L 405.25895,135.19298   L 417.89829,131.03319   L 417.89829,131.03319   L 430.37765,123.51358   L 430.37765,123.51358   L 442.857,125.43349   L 442.857,125.43349   L 455.49634,124.31354   L 455.49634,124.31354   L 467.97569,119.67378   L 467.97569,119.67378   L 480.45505,115.67399   L 480.45505,115.67399   L 493.09439,116.79393   L 493.09439,116.79393   L 505.57374,112.95413   L 505.57374,112.95413   L 518.05309,117.27391   L 518.05309,117.27391   L 530.69244,111.35422   L 530.69244,111.35422   L 543.17179,106.55447   L 543.17179,106.55447   L 555.65114,102.23469   L 555.65114,102.23469   L 568.29048,105.43452  "
     id="path99" />
  <path
     style="fill:none;stroke:#000000;stroke-width:1.9199003px;stroke-linecap:butt;stroke-linejoin:miter;stroke-miterlimit:2;stroke-dasharray:none;stroke-opacity:1;"
     clip-path="url(#clipEmfPath1)"
     d="  M 92.155214,189.11018   L 92.155214,189.11018   L 92.155214,189.11018   L 104.63457,184.31043   L 104.63457,184.31043   L 117.11392,176.47083   L 117.11392,176.47083   L 129.59327,170.39115   L 129.59327,170.39115   L 142.23261,172.63103   L 142.23261,172.63103   L 154.71196,164.31147   L 154.71196,164.31147   L 167.19132,159.35172   L 167.19132,159.35172   L 179.83066,159.8317   L 179.83066,159.8317   L 192.31001,158.39177   L 192.31001,158.39177   L 204.78936,157.43182   L 204.78936,157.43182   L 217.42871,151.03216   L 217.42871,151.03216   L 229.90806,149.11226   L 229.90806,149.11226   L 242.38741,145.43245   L 242.38741,145.43245   L 255.02675,148.15231   L 255.02675,148.15231   L 267.50611,140.79269   L 267.50611,140.79269   L 279.98546,140.4727   L 279.98546,140.4727   L 292.6248,135.19298   L 292.6248,135.19298   L 305.10415,132.31313   L 305.10415,132.31313   L 317.5835,129.59327   L 317.5835,129.59327   L 330.22285,126.39344   L 330.22285,126.39344   L 342.7022,124.95351   L 342.7022,124.95351   L 355.18155,121.59368   L 355.18155,121.59368   L 367.6609,118.87383   L 367.6609,118.87383   L 380.30025,117.11392   L 380.30025,117.11392   L 392.7796,115.99398   L 392.7796,115.99398   L 405.25895,118.23386   L 405.25895,118.23386   L 417.89829,111.99418   L 417.89829,111.99418   L 430.37765,109.43432   L 430.37765,109.43432   L 442.857,111.19422   L 442.857,111.19422   L 455.49634,109.59431   L 455.49634,109.59431   L 467.97569,107.35442   L 467.97569,107.35442   L 480.45505,106.07449   L 480.45505,106.07449   L 493.09439,106.87445   L 493.09439,106.87445   L 505.57374,104.47457   L 505.57374,104.47457   L 518.05309,102.71467   L 518.05309,102.71467   L 530.69244,101.43473   L 530.69244,101.43473   L 543.17179,101.91471   L 543.17179,101.91471   L 555.65114,100.47478   L 555.65114,100.47478   L 568.29048,103.19464  "
     id="path101" />
  <text
     xml:space="preserve"
     style="font-size:16.000000px;font-style:normal;font-variant:normal;font-weight:400;font-stretch:Normal;line-height:125.000000%;letter-spacing:0px;word-spacing:0px;fill:#000000;fill-opacity:1;stroke:none;font-family:Arial;text-align:start;text-anchor:start;"
     transform="matrix(1.000000,-0.000000,0.000000,1.000000,547.171580,65.276610)"
     x="0.000000"
     y="0.000000"
     id="text107"><tspan
       sodipodi:role="line"
       x="0.000000"
       y="0.000000"
       id="tspan105"><tspan
         dx="0.000000"
         dy="0.000000"
         style="fill:#000000;font-size:16.000000px;font-style:normal;font-variant:normal;font-weight:400;font-stretch:Normal;font-family:Arial;"
         id="tspan103">Female</tspan></tspan></text>
  <path
     style="fill:none;stroke:#ff0000;stroke-width:2.8798504px;stroke-linecap:butt;stroke-linejoin:miter;stroke-miterlimit:2;stroke-dasharray:none;stroke-opacity:1;"
     d="  M 515.17324,59.996884   L 535.65218,59.996884  "
     id="path109" />
  <text
     xml:space="preserve"
     style="font-size:16.000000px;font-style:normal;font-variant:normal;font-weight:400;font-stretch:Normal;line-height:125.000000%;letter-spacing:0px;word-spacing:0px;fill:#000000;fill-opacity:1;stroke:none;font-family:Arial;text-align:start;text-anchor:start;"
     transform="matrix(1.000000,-0.000000,0.000000,1.000000,396.459408,65.276610)"
     x="0.000000"
     y="0.000000"
     id="text115"><tspan
       sodipodi:role="line"
       x="0.000000"
       y="0.000000"
       id="tspan113"><tspan
         dx="0.000000"
         dy="0.000000"
         style="fill:#000000;font-size:16.000000px;font-style:normal;font-variant:normal;font-weight:400;font-stretch:Normal;font-family:Arial;"
         id="tspan111">All</tspan></tspan></text>
  <path
     style="fill:none;stroke:#000000;stroke-width:1.9199003px;stroke-linecap:butt;stroke-linejoin:miter;stroke-miterlimit:2;stroke-dasharray:none;stroke-opacity:1;"
     d="  M 364.46107,59.996884   L 384.94001,59.996884  "
     id="path117" />
  <text
     xml:space="preserve"
     style="font-size:16.000000px;font-style:normal;font-variant:normal;font-weight:400;font-stretch:Normal;line-height:125.000000%;letter-spacing:0px;word-spacing:0px;fill:#000000;fill-opacity:1;stroke:none;font-family:Arial;text-align:start;text-anchor:start;"
     transform="matrix(1.000000,-0.000000,0.000000,1.000000,463.655918,65.276610)"
     x="0.000000"
     y="0.000000"
     id="text123"><tspan
       sodipodi:role="line"
       x="0.000000"
       y="0.000000"
       id="tspan121"><tspan
         dx="0.000000"
         dy="0.000000"
         style="fill:#000000;font-size:16.000000px;font-style:normal;font-variant:normal;font-weight:400;font-stretch:Normal;font-family:Arial;"
         id="tspan119">Male</tspan></tspan></text>
  <path
     style="fill:none;stroke:#0000ff;stroke-width:1.9199003px;stroke-linecap:butt;stroke-linejoin:miter;stroke-miterlimit:2;stroke-dasharray:none;stroke-opacity:1;"
     d="  M 431.65758,59.996884   L 452.13652,59.996884  "
     id="path125" />
</svg>
