<?xml version="1.0" encoding="UTF-8" standalone="no"?>
<svg
   xmlns:dc="http://purl.org/dc/elements/1.1/"
   xmlns:cc="http://creativecommons.org/ns#"
   xmlns:rdf="http://www.w3.org/1999/02/22-rdf-syntax-ns#"
   xmlns:svg="http://www.w3.org/2000/svg"
   xmlns="http://www.w3.org/2000/svg"
   xmlns:sodipodi="http://sodipodi.sourceforge.net/DTD/sodipodi-0.dtd"
   xmlns:inkscape="http://www.inkscape.org/namespaces/inkscape"
   version="1.0"
   width="162.06mm"
   height="88.489998mm"
   id="svg163"
   sodipodi:docname="no.emf">
  <metadata
     id="metadata167">
    <rdf:RDF>
      <cc:Work
         rdf:about="">
        <dc:format>image/svg+xml</dc:format>
        <dc:type
           rdf:resource="http://purl.org/dc/dcmitype/StillImage" />
      </cc:Work>
    </rdf:RDF>
  </metadata>
  <sodipodi:namedview
     pagecolor="#ffffff"
     bordercolor="#666666"
     borderopacity="1"
     objecttolerance="10"
     gridtolerance="10"
     guidetolerance="10"
     inkscape:pageopacity="0"
     inkscape:pageshadow="2"
     inkscape:window-width="640"
     inkscape:window-height="480"
     id="namedview165" />
  <defs
     id="defs9">
    <clipPath
       clipPathUnits="userSpaceOnUse"
       id="clipEmfPath1">
      <path
         d="M 90.235313,53.757208 L 570.21038,53.757208 L 570.21038,245.74724 L 90.235313,245.74724 z"
         id="path2" />
    </clipPath>
    <clipPath
       clipPathUnits="userSpaceOnUse"
       id="clipEmfPath2">
      <path
         d="M 89.275363,53.757208 L 571.17033,53.757208 L 571.17033,245.74724 L 89.275363,245.74724 z"
         id="path5" />
    </clipPath>
    <pattern
       id="EMFhbasepattern"
       patternUnits="userSpaceOnUse"
       width="6"
       height="6"
       x="0"
       y="0" />
  </defs>
  <text
     xml:space="preserve"
     style="font-size:18.562500px;font-style:normal;font-variant:normal;font-weight:700;font-stretch:Normal;line-height:125.000000%;letter-spacing:0px;word-spacing:0px;fill:#000000;fill-opacity:1;stroke:none;font-family:Arial;text-align:start;text-anchor:start;"
     transform="matrix(1.000000,-0.000000,0.000000,1.000000,167.031324,30.718405)"
     x="0.000000"
     y="0.000000"
     id="text15"><tspan
       sodipodi:role="line"
       x="0.000000"
       y="0.000000"
       id="tspan13"><tspan
         dx="0.000000"
         dy="0.000000"
         style="fill:#000000;font-size:18.562500px;font-style:normal;font-variant:normal;font-weight:700;font-stretch:Normal;font-family:Arial;"
         id="tspan11">The no. of stomach cancer in Taiwan</tspan></tspan></text>
  <text
     xml:space="preserve"
     style="font-size:16.000000px;font-style:normal;font-variant:normal;font-weight:700;font-stretch:Normal;line-height:125.000000%;letter-spacing:0px;word-spacing:0px;fill:#000000;fill-opacity:1;stroke:none;font-family:Arial;text-align:start;text-anchor:start;"
     transform="matrix(1.000000,-0.000000,0.000000,1.000000,167.031324,30.718405)"
     x="146.872372"
     y="257.266638"
     id="text21"><tspan
       sodipodi:role="line"
       x="146.872372"
       y="257.266638"
       id="tspan19"><tspan
         dx="0.000000"
         dy="0.000000"
         style="fill:#000000;font-size:16.000000px;font-style:normal;font-variant:normal;font-weight:700;font-stretch:Normal;font-family:Arial;"
         id="tspan17">year</tspan></tspan></text>
  <text
     xml:space="preserve"
     style="font-size:16.000000px;font-style:normal;font-variant:normal;font-weight:700;font-stretch:Normal;line-height:125.000000%;letter-spacing:0px;word-spacing:0px;fill:#000000;fill-opacity:1;stroke:none;font-family:Arial;text-align:start;text-anchor:start;"
     transform="matrix(0.000000,-1.000000,1.000000,0.000000,27.998546,234.227834)"
     x="0.000000"
     y="0.000000"
     id="text67"><tspan
       sodipodi:role="line"
       x="0.000000"
       y="0.000000"
       id="tspan65"><tspan
         dx="0.000000"
         dy="0.000000"
         style="fill:#000000;font-size:16.000000px;font-style:normal;font-variant:normal;font-weight:700;font-stretch:Normal;font-family:Arial;"
         id="tspan23">N</tspan><tspan
         dx="0.000000"
         dy="0.000000"
         style="fill:#000000;font-size:16.000000px;font-style:normal;font-variant:normal;font-weight:700;font-stretch:Normal;font-family:Arial;"
         id="tspan25">o</tspan><tspan
         dx="0.000000"
         dy="0.000000"
         style="fill:#000000;font-size:16.000000px;font-style:normal;font-variant:normal;font-weight:700;font-stretch:Normal;font-family:Arial;"
         id="tspan27">.</tspan><tspan
         dx="0.000000"
         dy="0.000000"
         style="fill:#000000;font-size:16.000000px;font-style:normal;font-variant:normal;font-weight:700;font-stretch:Normal;font-family:Arial;"
         id="tspan29"> </tspan><tspan
         dx="0.000000"
         dy="0.000000"
         style="fill:#000000;font-size:16.000000px;font-style:normal;font-variant:normal;font-weight:700;font-stretch:Normal;font-family:Arial;"
         id="tspan31">o</tspan><tspan
         dx="0.000000"
         dy="0.000000"
         style="fill:#000000;font-size:16.000000px;font-style:normal;font-variant:normal;font-weight:700;font-stretch:Normal;font-family:Arial;"
         id="tspan33">f</tspan><tspan
         dx="0.000000"
         dy="0.000000"
         style="fill:#000000;font-size:16.000000px;font-style:normal;font-variant:normal;font-weight:700;font-stretch:Normal;font-family:Arial;"
         id="tspan35"> </tspan><tspan
         dx="0.000000"
         dy="0.000000"
         style="fill:#000000;font-size:16.000000px;font-style:normal;font-variant:normal;font-weight:700;font-stretch:Normal;font-family:Arial;"
         id="tspan37">s</tspan><tspan
         dx="0.000000"
         dy="0.000000"
         style="fill:#000000;font-size:16.000000px;font-style:normal;font-variant:normal;font-weight:700;font-stretch:Normal;font-family:Arial;"
         id="tspan39">t</tspan><tspan
         dx="0.000000"
         dy="0.000000"
         style="fill:#000000;font-size:16.000000px;font-style:normal;font-variant:normal;font-weight:700;font-stretch:Normal;font-family:Arial;"
         id="tspan41">o</tspan><tspan
         dx="0.000000"
         dy="0.000000"
         style="fill:#000000;font-size:16.000000px;font-style:normal;font-variant:normal;font-weight:700;font-stretch:Normal;font-family:Arial;"
         id="tspan43">m</tspan><tspan
         dx="0.000000"
         dy="0.000000"
         style="fill:#000000;font-size:16.000000px;font-style:normal;font-variant:normal;font-weight:700;font-stretch:Normal;font-family:Arial;"
         id="tspan45">a</tspan><tspan
         dx="0.000000"
         dy="0.000000"
         style="fill:#000000;font-size:16.000000px;font-style:normal;font-variant:normal;font-weight:700;font-stretch:Normal;font-family:Arial;"
         id="tspan47">c</tspan><tspan
         dx="0.000000"
         dy="0.000000"
         style="fill:#000000;font-size:16.000000px;font-style:normal;font-variant:normal;font-weight:700;font-stretch:Normal;font-family:Arial;"
         id="tspan49">h</tspan><tspan
         dx="0.000000"
         dy="0.000000"
         style="fill:#000000;font-size:16.000000px;font-style:normal;font-variant:normal;font-weight:700;font-stretch:Normal;font-family:Arial;"
         id="tspan51"> </tspan><tspan
         dx="0.000000"
         dy="0.000000"
         style="fill:#000000;font-size:16.000000px;font-style:normal;font-variant:normal;font-weight:700;font-stretch:Normal;font-family:Arial;"
         id="tspan53">c</tspan><tspan
         dx="0.000000"
         dy="0.000000"
         style="fill:#000000;font-size:16.000000px;font-style:normal;font-variant:normal;font-weight:700;font-stretch:Normal;font-family:Arial;"
         id="tspan55">a</tspan><tspan
         dx="0.000000"
         dy="0.000000"
         style="fill:#000000;font-size:16.000000px;font-style:normal;font-variant:normal;font-weight:700;font-stretch:Normal;font-family:Arial;"
         id="tspan57">n</tspan><tspan
         dx="0.000000"
         dy="0.000000"
         style="fill:#000000;font-size:16.000000px;font-style:normal;font-variant:normal;font-weight:700;font-stretch:Normal;font-family:Arial;"
         id="tspan59">c</tspan><tspan
         dx="0.000000"
         dy="0.000000"
         style="fill:#000000;font-size:16.000000px;font-style:normal;font-variant:normal;font-weight:700;font-stretch:Normal;font-family:Arial;"
         id="tspan61">e</tspan><tspan
         dx="0.000000"
         dy="0.000000"
         style="fill:#000000;font-size:16.000000px;font-style:normal;font-variant:normal;font-weight:700;font-stretch:Normal;font-family:Arial;"
         id="tspan63">r</tspan></tspan></text>
  <text
     xml:space="preserve"
     style="font-size:14.562500px;font-style:normal;font-variant:normal;font-weight:700;font-stretch:Normal;line-height:125.000000%;letter-spacing:0px;word-spacing:0px;fill:#000000;fill-opacity:1;stroke:none;font-family:Arial;text-align:start;text-anchor:start;"
     transform="matrix(1.000000,-0.000000,0.000000,1.000000,88.475405,319.823389)"
     x="0.000000"
     y="0.000000"
     id="text73"><tspan
       sodipodi:role="line"
       x="0.000000"
       y="0.000000"
       id="tspan71"><tspan
         dx="0.000000"
         dy="0.000000"
         style="fill:#000000;font-size:14.562500px;font-style:normal;font-variant:normal;font-weight:700;font-stretch:Normal;font-family:Arial;"
         id="tspan69">1980</tspan></tspan></text>
  <text
     xml:space="preserve"
     style="font-size:14.562500px;font-style:normal;font-variant:normal;font-weight:700;font-stretch:Normal;line-height:125.000000%;letter-spacing:0px;word-spacing:0px;fill:#000000;fill-opacity:1;stroke:none;font-family:Arial;text-align:start;text-anchor:start;"
     transform="matrix(1.000000,-0.000000,0.000000,1.000000,88.475405,319.823389)"
     x="125.273493"
     y="0.000000"
     id="text79"><tspan
       sodipodi:role="line"
       x="125.273493"
       y="0.000000"
       id="tspan77"><tspan
         dx="0.000000"
         dy="0.000000"
         style="fill:#000000;font-size:14.562500px;font-style:normal;font-variant:normal;font-weight:700;font-stretch:Normal;font-family:Arial;"
         id="tspan75">1990</tspan></tspan></text>
  <text
     xml:space="preserve"
     style="font-size:14.562500px;font-style:normal;font-variant:normal;font-weight:700;font-stretch:Normal;line-height:125.000000%;letter-spacing:0px;word-spacing:0px;fill:#000000;fill-opacity:1;stroke:none;font-family:Arial;text-align:start;text-anchor:start;"
     transform="matrix(1.000000,-0.000000,0.000000,1.000000,88.475405,319.823389)"
     x="250.546987"
     y="0.000000"
     id="text85"><tspan
       sodipodi:role="line"
       x="250.546987"
       y="0.000000"
       id="tspan83"><tspan
         dx="0.000000"
         dy="0.000000"
         style="fill:#000000;font-size:14.562500px;font-style:normal;font-variant:normal;font-weight:700;font-stretch:Normal;font-family:Arial;"
         id="tspan81">2000</tspan></tspan></text>
  <text
     xml:space="preserve"
     style="font-size:14.562500px;font-style:normal;font-variant:normal;font-weight:700;font-stretch:Normal;line-height:125.000000%;letter-spacing:0px;word-spacing:0px;fill:#000000;fill-opacity:1;stroke:none;font-family:Arial;text-align:start;text-anchor:start;"
     transform="matrix(1.000000,-0.000000,0.000000,1.000000,88.475405,319.823389)"
     x="375.820480"
     y="0.000000"
     id="text91"><tspan
       sodipodi:role="line"
       x="375.820480"
       y="0.000000"
       id="tspan89"><tspan
         dx="0.000000"
         dy="0.000000"
         style="fill:#000000;font-size:14.562500px;font-style:normal;font-variant:normal;font-weight:700;font-stretch:Normal;font-family:Arial;"
         id="tspan87">2010</tspan></tspan></text>
  <path
     style="fill:none;stroke:#000000;stroke-width:1.9199003px;stroke-linecap:butt;stroke-linejoin:miter;stroke-miterlimit:2;stroke-dasharray:none;stroke-opacity:1;"
     d="  M 91.195263,245.74724   L 569.25043,245.74724     M 104.63457,245.74724   L 104.63457,251.18695     M 229.90806,245.74724   L 229.90806,251.18695     M 355.18155,245.74724   L 355.18155,251.18695     M 480.45505,245.74724   L 480.45505,251.18695    "
     id="path93" />
  <text
     xml:space="preserve"
     style="font-size:14.562500px;font-style:normal;font-variant:normal;font-weight:700;font-stretch:Normal;line-height:125.000000%;letter-spacing:0px;word-spacing:0px;fill:#000000;fill-opacity:1;stroke:none;font-family:Arial;text-align:start;text-anchor:start;"
     transform="matrix(1.000000,-0.000000,0.000000,1.000000,76.796011,250.227003)"
     x="0.000000"
     y="0.000000"
     id="text99"><tspan
       sodipodi:role="line"
       x="0.000000"
       y="0.000000"
       id="tspan97"><tspan
         dx="0.000000"
         dy="0.000000"
         style="fill:#000000;font-size:14.562500px;font-style:normal;font-variant:normal;font-weight:700;font-stretch:Normal;font-family:Arial;"
         id="tspan95">0</tspan></tspan></text>
  <text
     xml:space="preserve"
     style="font-size:14.562500px;font-style:normal;font-variant:normal;font-weight:700;font-stretch:Normal;line-height:125.000000%;letter-spacing:0px;word-spacing:0px;fill:#000000;fill-opacity:1;stroke:none;font-family:Arial;text-align:start;text-anchor:start;"
     transform="matrix(1.000000,-0.000000,0.000000,1.000000,76.796011,250.227003)"
     x="-24.318737"
     y="-38.398006"
     id="text105"><tspan
       sodipodi:role="line"
       x="-24.318737"
       y="-38.398006"
       id="tspan103"><tspan
         dx="0.000000"
         dy="0.000000"
         style="fill:#000000;font-size:14.562500px;font-style:normal;font-variant:normal;font-weight:700;font-stretch:Normal;font-family:Arial;"
         id="tspan101">1000</tspan></tspan></text>
  <text
     xml:space="preserve"
     style="font-size:14.562500px;font-style:normal;font-variant:normal;font-weight:700;font-stretch:Normal;line-height:125.000000%;letter-spacing:0px;word-spacing:0px;fill:#000000;fill-opacity:1;stroke:none;font-family:Arial;text-align:start;text-anchor:start;"
     transform="matrix(1.000000,-0.000000,0.000000,1.000000,76.796011,250.227003)"
     x="-24.318737"
     y="-76.796011"
     id="text111"><tspan
       sodipodi:role="line"
       x="-24.318737"
       y="-76.796011"
       id="tspan109"><tspan
         dx="0.000000"
         dy="0.000000"
         style="fill:#000000;font-size:14.562500px;font-style:normal;font-variant:normal;font-weight:700;font-stretch:Normal;font-family:Arial;"
         id="tspan107">2000</tspan></tspan></text>
  <text
     xml:space="preserve"
     style="font-size:14.562500px;font-style:normal;font-variant:normal;font-weight:700;font-stretch:Normal;line-height:125.000000%;letter-spacing:0px;word-spacing:0px;fill:#000000;fill-opacity:1;stroke:none;font-family:Arial;text-align:start;text-anchor:start;"
     transform="matrix(1.000000,-0.000000,0.000000,1.000000,76.796011,250.227003)"
     x="-24.318737"
     y="-115.194017"
     id="text117"><tspan
       sodipodi:role="line"
       x="-24.318737"
       y="-115.194017"
       id="tspan115"><tspan
         dx="0.000000"
         dy="0.000000"
         style="fill:#000000;font-size:14.562500px;font-style:normal;font-variant:normal;font-weight:700;font-stretch:Normal;font-family:Arial;"
         id="tspan113">3000</tspan></tspan></text>
  <text
     xml:space="preserve"
     style="font-size:14.562500px;font-style:normal;font-variant:normal;font-weight:700;font-stretch:Normal;line-height:125.000000%;letter-spacing:0px;word-spacing:0px;fill:#000000;fill-opacity:1;stroke:none;font-family:Arial;text-align:start;text-anchor:start;"
     transform="matrix(1.000000,-0.000000,0.000000,1.000000,76.796011,250.227003)"
     x="-24.318737"
     y="-153.592023"
     id="text123"><tspan
       sodipodi:role="line"
       x="-24.318737"
       y="-153.592023"
       id="tspan121"><tspan
         dx="0.000000"
         dy="0.000000"
         style="fill:#000000;font-size:14.562500px;font-style:normal;font-variant:normal;font-weight:700;font-stretch:Normal;font-family:Arial;"
         id="tspan119">4000</tspan></tspan></text>
  <text
     xml:space="preserve"
     style="font-size:14.562500px;font-style:normal;font-variant:normal;font-weight:700;font-stretch:Normal;line-height:125.000000%;letter-spacing:0px;word-spacing:0px;fill:#000000;fill-opacity:1;stroke:none;font-family:Arial;text-align:start;text-anchor:start;"
     transform="matrix(1.000000,-0.000000,0.000000,1.000000,76.796011,250.227003)"
     x="-24.318737"
     y="-191.990028"
     id="text129"><tspan
       sodipodi:role="line"
       x="-24.318737"
       y="-191.990028"
       id="tspan127"><tspan
         dx="0.000000"
         dy="0.000000"
         style="fill:#000000;font-size:14.562500px;font-style:normal;font-variant:normal;font-weight:700;font-stretch:Normal;font-family:Arial;"
         id="tspan125">5000</tspan></tspan></text>
  <path
     style="fill:none;stroke:#000000;stroke-width:1.9199003px;stroke-linecap:butt;stroke-linejoin:miter;stroke-miterlimit:2;stroke-dasharray:none;stroke-opacity:1;"
     d="  M 92.155214,246.70719   L 92.155214,52.797258     M 92.155214,245.74724   L 86.715496,245.74724     M 92.155214,207.34923   L 86.715496,207.34923     M 92.155214,168.95122   L 86.715496,168.95122     M 92.155214,130.55322   L 86.715496,130.55322     M 92.155214,92.155214   L 86.715496,92.155214     M 92.155214,53.757208   L 86.715496,53.757208    "
     id="path131" />
  <path
     style="fill:none;stroke:#000000;stroke-width:1.9199003px;stroke-linecap:butt;stroke-linejoin:miter;stroke-miterlimit:2;stroke-dasharray:none;stroke-opacity:1;"
     clip-path="url(#clipEmfPath1)"
     d="  M 92.155214,189.27017   L 92.155214,189.27017   L 92.155214,189.27017   L 104.63457,179.19069   L 104.63457,179.19069   L 117.11392,174.39094   L 117.11392,174.39094   L 129.59327,180.31063   L 129.59327,180.31063   L 142.23261,169.59119   L 142.23261,169.59119   L 154.71196,171.3511   L 154.71196,171.3511   L 167.19132,165.43141   L 167.19132,165.43141   L 179.83066,167.99127   L 179.83066,167.99127   L 192.31001,151.51213   L 192.31001,151.51213   L 204.78936,163.03153   L 204.78936,163.03153   L 217.42871,150.07221   L 217.42871,150.07221   L 229.90806,161.59161   L 229.90806,161.59161   L 242.38741,143.99252   L 242.38741,143.99252   L 255.02675,138.87279   L 255.02675,138.87279   L 267.50611,142.87258   L 267.50611,142.87258   L 279.98546,146.71238   L 279.98546,146.71238   L 292.6248,136.47291   L 292.6248,136.47291   L 305.10415,127.67337   L 305.10415,127.67337   L 317.5835,123.1936   L 317.5835,123.1936   L 330.22285,119.51379   L 330.22285,119.51379   L 342.7022,115.83398   L 342.7022,115.83398   L 355.18155,117.11392   L 355.18155,117.11392   L 367.6609,111.35422   L 367.6609,111.35422   L 380.30025,103.9946   L 380.30025,103.9946   L 392.7796,116.79393   L 392.7796,116.79393   L 405.25895,104.31458   L 405.25895,104.31458   L 417.89829,111.19422   L 417.89829,111.19422   L 430.37765,104.31458   L 430.37765,104.31458   L 442.857,103.51462   L 442.857,103.51462   L 455.49634,105.11454   L 455.49634,105.11454   L 467.97569,96.155006   L 467.97569,96.155006   L 480.45505,94.875072   L 480.45505,94.875072   L 493.09439,97.114956   L 493.09439,97.114956   L 505.57374,98.554881   L 505.57374,98.554881   L 518.05309,98.394889   L 518.05309,98.394889   L 530.69244,98.714873   L 530.69244,98.714873   L 543.17179,96.155006   L 543.17179,96.155006   L 555.65114,103.83461   L 555.65114,103.83461   L 568.29048,103.67462  "
     id="path133" />
  <path
     style="fill:none;stroke:#ff0000;stroke-width:2.8798504px;stroke-linecap:butt;stroke-linejoin:miter;stroke-miterlimit:2;stroke-dasharray:none;stroke-opacity:1;"
     clip-path="url(#clipEmfPath2)"
     d="  M 92.155214,231.98795   L 92.155214,231.98795   L 92.155214,231.98795   L 104.63457,228.14815   L 104.63457,228.14815   L 117.11392,227.50818   L 117.11392,227.50818   L 129.59327,227.98816   L 129.59327,227.98816   L 142.23261,225.10831   L 142.23261,225.10831   L 154.71196,224.14836   L 154.71196,224.14836   L 167.19132,223.50839   L 167.19132,223.50839   L 179.83066,223.50839   L 179.83066,223.50839   L 192.31001,218.86863   L 192.31001,218.86863   L 204.78936,222.38845   L 204.78936,222.38845   L 217.42871,217.5887   L 217.42871,217.5887   L 229.90806,220.94852   L 229.90806,220.94852   L 242.38741,212.62896   L 242.38741,212.62896   L 255.02675,212.46896   L 255.02675,212.46896   L 267.50611,214.06888   L 267.50611,214.06888   L 279.98546,214.06888   L 279.98546,214.06888   L 292.6248,211.18903   L 292.6248,211.18903   L 305.10415,206.54927   L 305.10415,206.54927   L 317.5835,202.70947   L 317.5835,202.70947   L 330.22285,204.46938   L 330.22285,204.46938   L 342.7022,202.70947   L 342.7022,202.70947   L 355.18155,202.0695   L 355.18155,202.0695   L 367.6609,202.2295   L 367.6609,202.2295   L 380.30025,199.34965   L 380.30025,199.34965   L 392.7796,201.90951   L 392.7796,201.90951   L 405.25895,196.14981   L 405.25895,196.14981   L 417.89829,197.90972   L 417.89829,197.90972   L 430.37765,196.78978   L 430.37765,196.78978   L 442.857,194.5499   L 442.857,194.5499   L 455.49634,195.82983   L 455.49634,195.82983   L 467.97569,189.59015   L 467.97569,189.59015   L 480.45505,189.75014   L 480.45505,189.75014   L 493.09439,191.19007   L 493.09439,191.19007   L 505.57374,191.03008   L 505.57374,191.03008   L 518.05309,192.94998   L 518.05309,192.94998   L 530.69244,189.11018   L 530.69244,189.11018   L 543.17179,187.51026   L 543.17179,187.51026   L 555.65114,193.58995   L 555.65114,193.58995   L 568.29048,192.15002  "
     id="path135" />
  <path
     style="fill:none;stroke:#0000ff;stroke-width:1.9199003px;stroke-linecap:butt;stroke-linejoin:miter;stroke-miterlimit:2;stroke-dasharray:none;stroke-opacity:1;"
     clip-path="url(#clipEmfPath1)"
     d="  M 92.155214,203.18945   L 92.155214,203.18945   L 92.155214,203.18945   L 104.63457,196.94977   L 104.63457,196.94977   L 117.11392,192.78999   L 117.11392,192.78999   L 129.59327,198.2297   L 129.59327,198.2297   L 142.23261,190.39011   L 142.23261,190.39011   L 154.71196,192.94998   L 154.71196,192.94998   L 167.19132,187.67025   L 167.19132,187.67025   L 179.83066,190.23012   L 179.83066,190.23012   L 192.31001,178.39073   L 192.31001,178.39073   L 204.78936,186.39032   L 204.78936,186.39032   L 217.42871,178.23074   L 217.42871,178.23074   L 229.90806,186.39032   L 229.90806,186.39032   L 242.38741,177.1108   L 242.38741,177.1108   L 255.02675,172.31105   L 255.02675,172.31105   L 267.50611,174.71093   L 267.50611,174.71093   L 279.98546,178.39073   L 279.98546,178.39073   L 292.6248,171.03112   L 292.6248,171.03112   L 305.10415,166.87133   L 305.10415,166.87133   L 317.5835,166.23137   L 317.5835,166.23137   L 330.22285,160.95164   L 330.22285,160.95164   L 342.7022,159.03174   L 342.7022,159.03174   L 355.18155,160.95164   L 355.18155,160.95164   L 367.6609,155.03195   L 367.6609,155.03195   L 380.30025,150.39219   L 380.30025,150.39219   L 392.7796,160.79165   L 392.7796,160.79165   L 405.25895,154.072   L 405.25895,154.072   L 417.89829,159.03174   L 417.89829,159.03174   L 430.37765,153.43203   L 430.37765,153.43203   L 442.857,154.71196   L 442.857,154.71196   L 455.49634,155.19194   L 455.49634,155.19194   L 467.97569,152.47208   L 467.97569,152.47208   L 480.45505,151.03216   L 480.45505,151.03216   L 493.09439,151.67212   L 493.09439,151.67212   L 505.57374,153.43203   L 505.57374,153.43203   L 518.05309,151.35214   L 518.05309,151.35214   L 530.69244,155.51192   L 530.69244,155.51192   L 543.17179,154.55197   L 543.17179,154.55197   L 555.65114,156.15189   L 555.65114,156.15189   L 568.29048,157.43182  "
     id="path137" />
  <text
     xml:space="preserve"
     style="font-size:16.000000px;font-style:normal;font-variant:normal;font-weight:400;font-stretch:Normal;line-height:125.000000%;letter-spacing:0px;word-spacing:0px;fill:#000000;fill-opacity:1;stroke:none;font-family:Arial;text-align:start;text-anchor:start;"
     transform="matrix(1.000000,-0.000000,0.000000,1.000000,530.852428,66.236560)"
     x="0.000000"
     y="0.000000"
     id="text143"><tspan
       sodipodi:role="line"
       x="0.000000"
       y="0.000000"
       id="tspan141"><tspan
         dx="0.000000"
         dy="0.000000"
         style="fill:#000000;font-size:16.000000px;font-style:normal;font-variant:normal;font-weight:400;font-stretch:Normal;font-family:Arial;"
         id="tspan139">Male</tspan></tspan></text>
  <path
     style="fill:none;stroke:#0000ff;stroke-width:1.9199003px;stroke-linecap:butt;stroke-linejoin:miter;stroke-miterlimit:2;stroke-dasharray:none;stroke-opacity:1;"
     d="  M 498.85409,60.956834   L 519.33303,60.956834  "
     id="path145" />
  <text
     xml:space="preserve"
     style="font-size:16.000000px;font-style:normal;font-variant:normal;font-weight:400;font-stretch:Normal;line-height:125.000000%;letter-spacing:0px;word-spacing:0px;fill:#000000;fill-opacity:1;stroke:none;font-family:Arial;text-align:start;text-anchor:start;"
     transform="matrix(1.000000,-0.000000,0.000000,1.000000,434.217447,66.236560)"
     x="0.000000"
     y="0.000000"
     id="text151"><tspan
       sodipodi:role="line"
       x="0.000000"
       y="0.000000"
       id="tspan149"><tspan
         dx="0.000000"
         dy="0.000000"
         style="fill:#000000;font-size:16.000000px;font-style:normal;font-variant:normal;font-weight:400;font-stretch:Normal;font-family:Arial;"
         id="tspan147">Female</tspan></tspan></text>
  <path
     style="fill:none;stroke:#ff0000;stroke-width:2.8798504px;stroke-linecap:butt;stroke-linejoin:miter;stroke-miterlimit:2;stroke-dasharray:none;stroke-opacity:1;"
     d="  M 402.21911,60.956834   L 422.69805,60.956834  "
     id="path153" />
  <text
     xml:space="preserve"
     style="font-size:16.000000px;font-style:normal;font-variant:normal;font-weight:400;font-stretch:Normal;line-height:125.000000%;letter-spacing:0px;word-spacing:0px;fill:#000000;fill-opacity:1;stroke:none;font-family:Arial;text-align:start;text-anchor:start;"
     transform="matrix(1.000000,-0.000000,0.000000,1.000000,381.100206,66.236560)"
     x="0.000000"
     y="0.000000"
     id="text159"><tspan
       sodipodi:role="line"
       x="0.000000"
       y="0.000000"
       id="tspan157"><tspan
         dx="0.000000"
         dy="0.000000"
         style="fill:#000000;font-size:16.000000px;font-style:normal;font-variant:normal;font-weight:400;font-stretch:Normal;font-family:Arial;"
         id="tspan155">All</tspan></tspan></text>
  <path
     style="fill:none;stroke:#000000;stroke-width:1.9199003px;stroke-linecap:butt;stroke-linejoin:miter;stroke-miterlimit:2;stroke-dasharray:none;stroke-opacity:1;"
     d="  M 349.10187,60.956834   L 369.5808,60.956834  "
     id="path161" />
</svg>
